<svg width="95" height="90" viewBox="0 0 95 90" fill="none" xmlns="http://www.w3.org/2000/svg">
<g filter="url(#filter0_d_8_39815)">
<path d="M69.4441 55.9455C68.9643 55.9455 68.4703 55.9178 67.9623 55.8483C61.3015 54.9595 58.6203 49.5291 58.9448 44.8488C59.2694 40.0295 62.7691 34.8492 69.6698 34.8492H70.1355L70.4601 35.1825C70.9117 35.6408 75.0323 39.599 79.7739 35.1408C80.2114 34.7381 80.8888 34.7519 81.3121 35.1825C81.7214 35.613 81.7073 36.2797 81.2698 36.6963C79.3223 38.5296 77.2056 39.4323 74.99 39.3629C72.1959 39.2934 70.065 37.7102 69.2465 37.0019C65.3375 37.1546 62.8679 39.4462 61.7672 42.1544C61.8801 42.2239 61.9648 42.3072 62.0494 42.4183C64.6178 45.8487 66.3112 44.8071 66.8616 44.4599C69.19 43.0155 72.0971 43.1405 74.2421 44.7793C76.2883 46.3348 77.0786 48.8069 76.3024 51.2513C75.371 54.1956 72.972 55.9455 69.9097 55.9455C69.7545 55.9455 69.6134 55.9455 69.4441 55.9455ZM61.1322 44.696C61.1181 44.7932 61.1181 44.8904 61.1039 45.0015C60.8358 48.8347 62.9526 53.029 68.2445 53.7373C68.7808 53.8067 69.3312 53.8345 69.8392 53.8067C72.8732 53.8067 73.9175 51.5707 74.2139 50.5985C74.7219 49.0153 74.228 47.4737 72.9015 46.4598C71.4762 45.3765 69.5428 45.2932 67.9905 46.2654C66.664 47.0987 64.0674 47.9042 61.1322 44.696Z" fill="url(#paint0_linear_8_39815)"/>
<path d="M59.3822 37.0157C57.1384 37.0157 54.9652 36.2935 53.2294 35.1269C49.1652 32.4326 46.3428 26.8634 49.8003 20.9886L50.0402 20.5858L50.4917 20.4747C51.1268 20.322 56.6586 18.7804 55.1204 12.5167C54.9793 11.9473 55.3321 11.364 55.9248 11.2251C56.5034 11.0862 57.0961 11.4334 57.2372 12.0167C57.8722 14.5861 57.6041 16.836 56.4469 18.7109C54.9934 21.058 52.538 22.0719 51.4937 22.4191C49.6732 25.8217 50.4494 29.0716 52.2839 31.3771C52.3968 31.3215 52.5238 31.2799 52.6508 31.266C56.955 30.7938 56.8703 28.8355 56.8562 28.1828C56.7574 25.4745 58.3097 23.0719 60.8216 22.0441C63.2065 21.0719 65.789 21.6414 67.5389 23.5302C69.6556 25.794 70.0084 28.7105 68.4702 31.3354C68.2021 31.8632 67.8352 32.4187 67.4118 32.9465C65.1116 35.8491 62.1905 37.0157 59.3822 37.0157ZM54.1749 33.1826C54.2596 33.2381 54.3443 33.2937 54.4289 33.3492C57.6747 35.488 62.4163 35.7936 65.6902 31.6271C66.0289 31.1965 66.3111 30.7521 66.551 30.2938C68.0751 27.7106 66.6216 25.6968 65.9301 24.9607C64.787 23.7385 63.1783 23.3774 61.626 24.0163C59.9608 24.6968 58.9306 26.2939 59.0012 28.0994C59.0576 29.6688 58.479 32.2937 54.1749 33.1826Z" fill="url(#paint1_linear_8_39815)"/>
<path d="M36.6763 36.3352C33.3318 36.3352 29.8744 34.8353 27.6306 31.0021L27.3907 30.5994L27.5177 30.1549C27.7012 29.5438 29.1124 24.058 22.8326 22.2386C22.254 22.0719 21.9294 21.4747 22.0988 20.9192C22.2681 20.3498 22.8749 20.0303 23.4394 20.197C26.0219 20.947 27.8705 22.2941 28.9289 24.2107C30.2696 26.6273 29.9309 29.2244 29.7192 30.2799C31.8077 33.5298 35.0535 34.4881 38.0029 34.0853C38.0029 33.9603 38.0452 33.8353 38.0875 33.7103C39.8233 29.8077 38.0593 28.8911 37.4807 28.5855C35.0394 27.3217 33.6987 24.794 34.0656 22.1275C34.4043 19.5998 36.1965 17.6971 38.7367 17.1416C41.7989 16.4749 44.5366 17.6277 46.0607 20.2526C46.3853 20.7525 46.6958 21.3358 46.9498 21.9608C49.4899 28.0717 46.0607 33.0854 41.7848 35.1547C40.2607 35.8908 38.4827 36.3352 36.6763 36.3352ZM40.3736 19.1137C39.908 19.1137 39.4987 19.1832 39.2165 19.2387C37.5654 19.5998 36.4505 20.7942 36.2248 22.433C35.9849 24.1968 36.8739 25.8773 38.4968 26.7106C39.908 27.4467 41.9118 29.2522 40.5571 33.3631C40.6559 33.3215 40.7406 33.2798 40.8393 33.2381C44.3532 31.5438 46.978 27.655 44.96 22.7802C44.7483 22.2802 44.5084 21.808 44.2262 21.3775C43.1396 19.5165 41.5449 19.1137 40.3736 19.1137Z" fill="url(#paint2_linear_8_39815)"/>
<path d="M14.5347 54.89C14.2525 54.89 13.9561 54.7789 13.7445 54.5567C13.3352 54.1261 13.3493 53.4595 13.7868 53.0428C15.7342 51.2096 17.851 50.3068 20.0666 50.3763C22.8607 50.4457 24.9916 52.029 25.8101 52.7373C29.7191 52.5845 32.1887 50.293 33.2894 47.5847C33.1765 47.5153 33.0918 47.432 33.0071 47.3209C30.4388 43.8904 28.7454 44.9321 28.195 45.2793C25.8665 46.7237 22.9595 46.5987 20.8145 44.9598C18.7683 43.4043 17.978 40.9322 18.7542 38.4879C19.6855 35.5435 22.0846 33.7936 25.1468 33.7936C25.7395 33.7658 26.4169 33.7936 27.0943 33.877C33.7551 34.7658 36.4363 40.1961 36.1117 44.8765C35.7872 49.6958 32.2874 54.8761 25.3867 54.8761H24.921L24.5965 54.5428C24.1449 54.0845 20.0242 50.1263 15.2826 54.5844C15.071 54.7928 14.8028 54.89 14.5347 54.89ZM29.5356 42.7377C30.7916 42.7377 32.3015 43.2932 33.9244 45.0571C33.9385 44.9598 33.9385 44.8626 33.9526 44.7515C34.2208 40.9183 32.104 36.7241 26.812 36.0158C26.2758 35.9463 25.7254 35.9185 25.2174 35.9463C22.1833 35.9463 21.1391 38.1823 20.8427 39.1545C20.3347 40.7378 20.8286 42.2794 22.1551 43.2932C23.5804 44.3765 25.5137 44.4599 27.066 43.4877C27.6446 43.0988 28.5055 42.7377 29.5356 42.7377Z" fill="url(#paint3_linear_8_39815)"/>
<path d="M38.9058 78.5418C38.4119 78.5418 37.9744 78.2085 37.8474 77.7224C37.2124 75.1531 37.4805 72.9032 38.6377 71.0282C40.0912 68.6811 42.5467 67.6673 43.5909 67.3201C45.4114 63.9174 44.6352 60.6675 42.8007 58.3621C42.6878 58.4176 42.5608 58.4593 42.4338 58.4732C38.1296 58.9454 38.2143 60.9036 38.2284 61.5564C38.3272 64.2646 36.7749 66.6673 34.263 67.695C31.8781 68.6672 29.2956 68.0978 27.5458 66.209C25.429 63.9452 25.0762 61.0286 26.6144 58.4037C26.8825 57.876 27.2494 57.3205 27.6728 56.7927C31.7793 51.5707 37.9039 51.9873 41.8552 54.5983C45.9194 57.2927 48.7418 62.8619 45.2844 68.7367L45.0445 69.1394L44.5929 69.2505C43.9578 69.4033 38.426 70.9449 39.9642 77.2085C40.1053 77.778 39.7525 78.3613 39.1598 78.5002C39.0751 78.5279 38.9905 78.5418 38.9058 78.5418ZM35.7024 54.8483C33.4727 54.8483 31.2007 55.7789 29.3662 58.1121C29.0275 58.5426 28.7453 58.9871 28.5054 59.4454C26.9813 62.0286 28.4348 64.0424 29.1263 64.7785C30.2693 66.0007 31.8781 66.3618 33.4304 65.7229C35.0956 65.0424 36.1258 63.4452 36.0552 61.6397C35.9988 60.0703 36.5773 57.4593 40.8815 56.5566C40.7968 56.501 40.7121 56.4455 40.6274 56.3899C39.2021 55.4455 37.4664 54.8483 35.7024 54.8483Z" fill="url(#paint4_linear_8_39815)"/>
<path d="M54.6406 72.7643C52.2698 72.7643 50.2236 71.5976 48.9818 69.4727C48.6572 68.9727 48.3467 68.3894 48.0927 67.7645C45.5526 61.6536 48.9818 56.6399 53.2577 54.5706C57.6606 52.4456 63.9686 52.8345 67.4118 58.7232L67.6517 59.1259L67.5247 59.5704C67.3413 60.1814 65.9301 65.6673 72.2099 67.4867C72.7885 67.6534 73.113 68.2506 72.9437 68.8061C72.7743 69.3755 72.1675 69.6949 71.6031 69.5283C69.0206 68.7783 67.1719 67.4311 66.1136 65.5146C64.7729 63.098 65.1116 60.5009 65.3233 59.4454C63.2347 56.1955 59.989 55.2372 57.0396 55.64C57.0396 55.765 56.9973 55.8899 56.955 56.0149C55.2192 59.9176 56.9832 60.8342 57.5618 61.1397C60.0031 62.4036 61.3438 64.9312 60.9768 67.5978C60.6382 70.1255 58.846 72.0282 56.3058 72.5837C55.7413 72.7087 55.1769 72.7643 54.6406 72.7643ZM54.4854 56.376C54.3866 56.4177 54.3019 56.4594 54.2032 56.501C50.6893 58.1954 48.0645 62.0841 50.0825 66.9589C50.2942 67.4589 50.5341 67.9311 50.8163 68.3617C52.3404 70.9449 54.8241 70.7088 55.826 70.5005C57.4771 70.1394 58.5919 68.945 58.8177 67.3062C59.0576 65.5423 58.1686 63.8618 56.5457 63.0285C55.1345 62.2925 53.1307 60.487 54.4854 56.376Z" fill="url(#paint5_linear_8_39815)"/>
<path d="M47.5282 55.2511C46.6532 55.2511 45.7783 55.0289 45.0021 54.5844L40.2323 51.8901C38.68 51.0013 37.7063 49.3485 37.7063 47.5847V42.1683C37.7063 40.3906 38.68 38.7518 40.2323 37.8629L44.988 35.1547C46.5403 34.2658 48.4878 34.2658 50.0401 35.1547L54.7958 37.8629C56.3481 38.7518 57.3218 40.4045 57.3218 42.1683V47.5847C57.3218 49.3624 56.3481 51.0013 54.7958 51.8901L50.0401 54.5983C49.278 55.0289 48.4031 55.2511 47.5282 55.2511ZM47.5282 36.6268C47.0342 36.6268 46.5262 36.7518 46.0887 37.0018L41.333 39.71C40.444 40.21 39.8936 41.1544 39.8936 42.1683V47.5847C39.8936 48.5986 40.444 49.543 41.333 50.043L46.0887 52.7512C46.9778 53.2512 48.0785 53.2512 48.9676 52.7512L53.7233 50.043C54.6123 49.543 55.1627 48.5986 55.1627 47.5847V42.1683C55.1627 41.1544 54.6123 40.21 53.7233 39.71L48.9676 37.0018C48.5301 36.7518 48.0221 36.6268 47.5282 36.6268Z" fill="url(#paint6_linear_8_39815)"/>
<path d="M49.3911 19.9609C46.4699 19.9609 44.0991 17.6276 44.0991 14.7527C44.0991 14.1694 44.5789 13.6833 45.1857 13.6833C45.7784 13.6833 46.2723 14.1555 46.2723 14.7527C46.2723 16.4471 47.6694 17.8221 49.3911 17.8221C51.1127 17.8221 52.5098 16.4471 52.5098 14.7527C52.5098 13.0584 51.1127 11.6834 49.3911 11.6834C48.7984 11.6834 48.3045 11.2112 48.3045 10.614C48.3045 10.0168 48.7843 9.54462 49.3911 9.54462C52.3122 9.54462 54.683 11.8779 54.683 14.7527C54.683 17.6276 52.3122 19.9609 49.3911 19.9609Z" fill="url(#paint7_linear_8_39815)"/>
<path d="M21.8164 33.4742C20.9133 33.4742 20.0101 33.252 19.1775 32.7798C18.6554 32.4881 18.486 31.8353 18.7824 31.3215C19.0787 30.8076 19.742 30.641 20.2641 30.9326C21.76 31.7798 23.6651 31.2798 24.5259 29.8077C25.3867 28.3355 24.8787 26.4606 23.3828 25.6134C22.6631 25.1967 21.8164 25.0995 21.012 25.3078C20.2077 25.5162 19.5303 26.03 19.1211 26.7383C18.8247 27.2522 18.1615 27.4189 17.6393 27.1272C17.1172 26.8356 16.9478 26.1828 17.2442 25.6689C17.9498 24.4606 19.0928 23.5996 20.4617 23.2385C21.8305 22.8774 23.2558 23.0579 24.4695 23.7523C26.9955 25.1828 27.8563 28.3772 26.4028 30.8632C25.4291 32.5298 23.651 33.4742 21.8164 33.4742Z" fill="url(#paint8_linear_8_39815)"/>
<path d="M22.0281 63.1535C21.647 63.1535 21.2942 62.9591 21.0826 62.6258C20.7862 62.1119 20.9556 61.4592 21.4777 61.1675C22.9735 60.3203 23.4816 58.4454 22.6208 56.9732C21.7599 55.5011 19.8548 55.0011 18.359 55.8483C16.8631 56.6955 16.3551 58.5704 17.2159 60.0425C17.5123 60.5564 17.3429 61.2092 16.8208 61.5008C16.2986 61.7925 15.6354 61.6258 15.339 61.1119C13.8855 58.6259 14.7463 55.4316 17.2724 54.0011C19.7984 52.5706 23.0441 53.4178 24.4976 55.9038C25.9511 58.3898 25.0903 61.5842 22.5643 63.0147C22.4091 63.1119 22.2115 63.1535 22.0281 63.1535Z" fill="url(#paint9_linear_8_39815)"/>
<path d="M45.5949 80.4584C42.6738 80.4584 40.303 78.1252 40.303 75.2503C40.303 72.3754 42.6738 70.0422 45.5949 70.0422C48.5161 70.0422 50.8869 72.3754 50.8869 75.2503C50.8869 75.8336 50.4071 76.3197 49.8003 76.3197C49.1934 76.3197 48.7136 75.8475 48.7136 75.2503C48.7136 73.5559 47.3166 72.181 45.5949 72.181C43.8733 72.181 42.4762 73.5559 42.4762 75.2503C42.4762 76.9447 43.8733 78.3196 45.5949 78.3196C46.1876 78.3196 46.6815 78.7918 46.6815 79.389C46.6815 79.9723 46.1876 80.4584 45.5949 80.4584Z" fill="url(#paint10_linear_8_39815)"/>
<path d="M73.1413 66.9451C72.224 66.9451 71.3208 66.709 70.5023 66.2507C67.9763 64.8202 67.1155 61.6259 68.569 59.1399C70.0225 56.6538 73.2683 55.8067 75.7943 57.2371C76.3164 57.5288 76.4858 58.1816 76.1894 58.6954C75.8931 59.2093 75.2298 59.3759 74.7077 59.0843C73.2118 58.2371 71.3067 58.7371 70.4459 60.2092C69.5851 61.6814 70.0931 63.5563 71.589 64.4035C72.3087 64.8063 73.1554 64.9174 73.9597 64.7091C74.7641 64.5007 75.4415 63.9869 75.8507 63.2786C76.1471 62.7647 76.8103 62.598 77.3325 62.8897C77.8546 63.1814 78.024 63.8341 77.7276 64.348C77.022 65.5563 75.879 66.4173 74.5101 66.7784C74.0726 66.8895 73.6069 66.9451 73.1413 66.9451Z" fill="url(#paint11_linear_8_39815)"/>
<path d="M75.0604 36.7102C73.2259 36.7102 71.4478 35.7797 70.474 34.1131C69.0205 31.6271 69.8813 28.4328 72.4074 27.0023C72.9295 26.7106 73.5928 26.8773 73.8891 27.3911C74.1855 27.905 74.0161 28.5577 73.494 28.8494C71.9981 29.6966 71.4901 31.5715 72.3509 33.0437C73.2117 34.5158 75.1168 35.0158 76.6127 34.1686C78.1086 33.3214 78.6166 31.4465 77.7558 29.9744C77.4594 29.4605 77.6288 28.8077 78.1509 28.5161C78.673 28.2244 79.3363 28.3911 79.6326 28.905C81.0862 31.391 80.2253 34.5853 77.6993 36.0158C76.8667 36.4741 75.9636 36.7102 75.0604 36.7102Z" fill="url(#paint12_linear_8_39815)"/>
<path d="M31.6665 24.7245C31.6101 24.7245 31.5536 24.7245 31.4972 24.7107C30.9045 24.6273 30.4952 24.0857 30.5799 23.5024C30.6363 23.0996 30.975 19.6136 26.304 18.3498C25.5278 18.1415 24.921 17.5721 24.6529 16.836C24.3848 16.0999 24.5118 15.2805 24.9775 14.6555C27.5176 11.239 34.7288 4.03093 46.9073 10.7945C47.4294 11.0862 47.6129 11.739 47.3165 12.2528C47.0202 12.7667 46.3569 12.9472 45.8348 12.6556C35.5896 6.94748 29.4792 12.2528 26.7556 15.9193C26.6991 16.0027 26.7132 16.086 26.7273 16.1277C26.7415 16.1693 26.7838 16.2527 26.8967 16.2943C32.2169 17.7248 33.0495 21.8358 32.739 23.8218C32.6684 24.3357 32.2027 24.7245 31.6665 24.7245Z" fill="url(#paint13_linear_8_39815)"/>
<path d="M32.231 18.0304C31.9911 18.0304 31.7512 17.9609 31.5536 17.7943C31.0879 17.4332 31.0032 16.7665 31.3702 16.2943C32.8378 14.4611 36.9867 11.5584 42.1516 13.7666C42.702 14.0027 42.956 14.6277 42.7161 15.1694C42.4762 15.711 41.8412 15.961 41.2908 15.7249C36.394 13.6416 33.2188 17.4609 33.0777 17.6137C32.866 17.9054 32.5556 18.0304 32.231 18.0304Z" fill="url(#paint14_linear_8_39815)"/>
<path d="M11.7547 50.404C11.5994 50.404 11.4583 50.3902 11.3031 50.3624C10.5269 50.2235 9.86368 49.7096 9.55322 49.0013C7.81747 45.1404 5.07977 35.3769 17.1313 28.3772C17.6534 28.0716 18.3167 28.2522 18.613 28.7521C18.9235 29.266 18.74 29.9188 18.232 30.2104C8.05737 36.1268 9.66612 43.9738 11.543 48.1264C11.5853 48.2236 11.6559 48.2514 11.7123 48.2652C11.7688 48.2791 11.8535 48.2791 11.9381 48.1958C15.8612 44.3765 19.8972 45.7376 21.4777 46.9736C21.9434 47.3486 22.0281 48.0153 21.6471 48.4736C21.2802 48.9319 20.5887 49.0152 20.123 48.6402C19.7984 48.3902 16.9055 46.3625 13.4622 49.7096C12.9965 50.1679 12.3756 50.404 11.7547 50.404Z" fill="url(#paint15_linear_8_39815)"/>
<path d="M15.1979 45.057C14.7745 45.057 14.3653 44.807 14.196 44.3904C13.3069 42.2238 12.8412 37.2379 17.357 33.9464C17.8368 33.5992 18.5142 33.6964 18.8811 34.1686C19.2339 34.6408 19.1351 35.3074 18.6553 35.6685C14.3371 38.8212 16.1998 43.5571 16.214 43.6126C16.4397 44.1543 16.1716 44.7793 15.6071 45.0015C15.466 45.0293 15.3249 45.057 15.1979 45.057Z" fill="url(#paint16_linear_8_39815)"/>
<path d="M32.2874 79.3612C32.2027 79.3612 32.118 79.3612 32.0333 79.3474C27.7575 78.889 17.8086 76.3614 17.6675 62.5841C17.6675 62.0008 18.1473 61.5147 18.74 61.5009H18.7541C19.3468 61.5009 19.8266 61.9731 19.8407 62.5564C19.9536 74.1809 27.6728 76.7363 32.2591 77.2224C32.3579 77.2363 32.4285 77.1808 32.4567 77.1391C32.4849 77.0974 32.5414 77.0141 32.5132 76.903C31.1161 71.6532 34.3195 68.8894 36.2105 68.1673C36.7749 67.9589 37.3959 68.2228 37.6216 68.7783C37.8333 69.32 37.5652 69.945 37.0148 70.1533C36.6338 70.3061 33.4022 71.7643 34.6158 76.3614C34.8134 77.1252 34.6299 77.9307 34.1078 78.5279C33.6421 79.0557 32.9788 79.3612 32.2874 79.3612Z" fill="url(#paint17_linear_8_39815)"/>
<path d="M30.453 73.0976C30.3965 73.0976 30.3542 73.0976 30.2978 73.0837C27.9411 72.7504 23.3265 70.6671 22.6774 65.1674C22.6068 64.5841 23.0302 64.0563 23.637 63.9869C24.2297 63.9174 24.7659 64.3341 24.8365 64.9313C25.4574 70.1949 30.5518 70.9727 30.6082 70.9866C31.2009 71.0699 31.6102 71.6116 31.5255 72.1949C31.4408 72.7087 30.9892 73.0976 30.453 73.0976Z" fill="url(#paint18_linear_8_39815)"/>
<path d="M57.6465 82C54.8806 82 51.6913 81.2222 48.0363 79.1945C47.5142 78.9029 47.3308 78.2501 47.6271 77.7363C47.9234 77.2224 48.5867 77.0418 49.1088 77.3335C59.3964 83.0416 65.5068 77.7501 68.2304 74.0836C68.2869 74.0003 68.2727 73.917 68.2586 73.8753C68.2445 73.8336 68.2022 73.7503 68.0893 73.7086C62.7691 72.2781 61.9365 68.1672 62.247 66.1812C62.3317 65.5979 62.8961 65.1951 63.4888 65.2923C64.0815 65.3756 64.4908 65.9173 64.392 66.5006C64.3355 66.9034 63.9969 70.3893 68.6679 71.6532C69.444 71.8615 70.0508 72.4309 70.319 73.167C70.5871 73.9031 70.4601 74.7225 69.9944 75.3475C68.2022 77.7501 64.1239 82 57.6465 82Z" fill="url(#paint19_linear_8_39815)"/>
<path d="M56.5599 77.0141C55.4027 77.0141 54.1468 76.778 52.8344 76.2225C52.284 75.9864 52.03 75.3614 52.2699 74.8198C52.5098 74.2781 53.1448 74.0281 53.6952 74.2642C58.592 76.3475 61.7672 72.5282 61.9083 72.3754C62.2752 71.9171 62.9667 71.8338 63.4324 72.2087C63.8981 72.5698 63.9827 73.2365 63.6158 73.7087C62.501 75.0697 59.9326 77.0141 56.5599 77.0141Z" fill="url(#paint20_linear_8_39815)"/>
<path d="M77.3184 61.7786C76.9515 61.7786 76.5846 61.5842 76.387 61.2509C76.0766 60.737 76.26 60.0842 76.7681 59.7926C86.9427 53.8762 85.334 46.0293 83.4571 41.8766C83.4147 41.7794 83.3442 41.7516 83.2877 41.7378C83.2313 41.7239 83.1466 41.7239 83.0619 41.8072C79.1389 45.6265 75.1029 44.2654 73.5223 43.0294C73.0566 42.6544 72.972 41.9877 73.353 41.5294C73.7199 41.0711 74.4114 40.9878 74.8771 41.3628C75.2016 41.6128 78.0946 43.6405 81.5379 40.2934C82.1023 39.7378 82.9208 39.5017 83.697 39.6406C84.4731 39.7795 85.1364 40.2934 85.4469 41.0017C87.1826 44.8626 89.9203 54.6261 77.8688 61.6258C77.6853 61.737 77.5019 61.7786 77.3184 61.7786Z" fill="url(#paint21_linear_8_39815)"/>
<path d="M76.9796 56.2788C76.655 56.2788 76.3164 56.1261 76.1047 55.8483C75.7519 55.3761 75.8507 54.7094 76.3305 54.3483C80.6487 51.1957 78.7859 46.4598 78.7718 46.4042C78.546 45.8626 78.8142 45.2376 79.3786 45.0154C79.929 44.7932 80.564 45.0571 80.7898 45.6126C81.6789 47.7792 82.1446 52.7651 77.6288 56.0566C77.4312 56.2094 77.2054 56.2788 76.9796 56.2788Z" fill="url(#paint22_linear_8_39815)"/>
<path d="M76.2316 28.516C75.6389 28.516 75.1591 28.0438 75.145 27.4605C75.0321 15.836 67.3129 13.2805 62.7266 12.7944C62.6278 12.7806 62.5572 12.8361 62.529 12.8778C62.5008 12.9194 62.4443 13.0028 62.4726 13.1139C63.8696 18.3637 60.6662 21.1274 58.7753 21.8496C58.2108 22.058 57.5899 21.7941 57.3641 21.2385C57.1524 20.6969 57.4205 20.0719 57.9709 19.8636C58.3519 19.7108 61.5835 18.2526 60.3699 13.6555C60.1723 12.8917 60.3558 12.0861 60.8779 11.4889C61.4001 10.8917 62.1762 10.6001 62.9524 10.6834C67.2283 11.1417 77.1771 13.6694 77.3182 27.4466C77.3182 28.0161 76.8384 28.5021 76.2316 28.516Z" fill="url(#paint23_linear_8_39815)"/>
<path d="M71.2221 26.044C70.6717 26.044 70.206 25.6412 70.1496 25.0996C69.5286 19.8359 64.4343 19.0581 64.3778 19.0442C63.7851 18.9609 63.3759 18.4193 63.4606 17.836C63.5452 17.2526 64.0956 16.8499 64.6883 16.9332C67.045 17.2665 71.6595 19.3498 72.3087 24.8496C72.3792 25.4329 71.9559 25.9606 71.3491 26.0301C71.3067 26.0301 71.2644 26.044 71.2221 26.044Z" fill="url(#paint24_linear_8_39815)"/>
</g>
<defs>
<filter id="filter0_d_8_39815" x="0" y="0" width="95" height="90" filterUnits="userSpaceOnUse" color-interpolation-filters="sRGB">
<feFlood flood-opacity="0" result="BackgroundImageFix"/>
<feColorMatrix in="SourceAlpha" type="matrix" values="0 0 0 0 0 0 0 0 0 0 0 0 0 0 0 0 0 0 127 0" result="hardAlpha"/>
<feOffset/>
<feGaussianBlur stdDeviation="4"/>
<feComposite in2="hardAlpha" operator="out"/>
<feColorMatrix type="matrix" values="0 0 0 0 0.960784 0 0 0 0 0.764706 0 0 0 0 0.372549 0 0 0 0.6 0"/>
<feBlend mode="normal" in2="BackgroundImageFix" result="effect1_dropShadow_8_39815"/>
<feBlend mode="normal" in="SourceGraphic" in2="effect1_dropShadow_8_39815" result="shape"/>
</filter>
<linearGradient id="paint0_linear_8_39815" x1="70.2638" y1="34.8488" x2="70.2638" y2="55.9455" gradientUnits="userSpaceOnUse">
<stop stop-color="#FEEFD0"/>
<stop offset="1" stop-color="#FCD587"/>
</linearGradient>
<linearGradient id="paint1_linear_8_39815" x1="58.8311" y1="11.1946" x2="58.8311" y2="37.0157" gradientUnits="userSpaceOnUse">
<stop stop-color="#FEEFD0"/>
<stop offset="1" stop-color="#FCD587"/>
</linearGradient>
<linearGradient id="paint2_linear_8_39815" x1="34.936" y1="16.9562" x2="34.936" y2="36.3352" gradientUnits="userSpaceOnUse">
<stop stop-color="#FEEFD0"/>
<stop offset="1" stop-color="#FCD587"/>
</linearGradient>
<linearGradient id="paint3_linear_8_39815" x1="24.7928" y1="33.7832" x2="24.7928" y2="54.89" gradientUnits="userSpaceOnUse">
<stop stop-color="#FEEFD0"/>
<stop offset="1" stop-color="#FCD587"/>
</linearGradient>
<linearGradient id="paint4_linear_8_39815" x1="36.2535" y1="52.7197" x2="36.2535" y2="78.5418" gradientUnits="userSpaceOnUse">
<stop stop-color="#FEEFD0"/>
<stop offset="1" stop-color="#FCD587"/>
</linearGradient>
<linearGradient id="paint5_linear_8_39815" x1="60.1064" y1="53.3912" x2="60.1064" y2="72.7643" gradientUnits="userSpaceOnUse">
<stop stop-color="#FEEFD0"/>
<stop offset="1" stop-color="#FCD587"/>
</linearGradient>
<linearGradient id="paint6_linear_8_39815" x1="47.514" y1="34.488" x2="47.514" y2="55.2511" gradientUnits="userSpaceOnUse">
<stop stop-color="#FEEFD0"/>
<stop offset="1" stop-color="#FCD587"/>
</linearGradient>
<linearGradient id="paint7_linear_8_39815" x1="49.3911" y1="9.54462" x2="49.3911" y2="19.9609" gradientUnits="userSpaceOnUse">
<stop stop-color="#FEEFD0"/>
<stop offset="1" stop-color="#FCD587"/>
</linearGradient>
<linearGradient id="paint8_linear_8_39815" x1="22.1039" y1="23.0569" x2="22.1039" y2="33.4742" gradientUnits="userSpaceOnUse">
<stop stop-color="#FEEFD0"/>
<stop offset="1" stop-color="#FCD587"/>
</linearGradient>
<linearGradient id="paint9_linear_8_39815" x1="19.9183" y1="53.3061" x2="19.9183" y2="63.1535" gradientUnits="userSpaceOnUse">
<stop stop-color="#FEEFD0"/>
<stop offset="1" stop-color="#FCD587"/>
</linearGradient>
<linearGradient id="paint10_linear_8_39815" x1="45.5949" y1="70.0422" x2="45.5949" y2="80.4584" gradientUnits="userSpaceOnUse">
<stop stop-color="#FEEFD0"/>
<stop offset="1" stop-color="#FCD587"/>
</linearGradient>
<linearGradient id="paint11_linear_8_39815" x1="72.8679" y1="56.5421" x2="72.8679" y2="66.9451" gradientUnits="userSpaceOnUse">
<stop stop-color="#FEEFD0"/>
<stop offset="1" stop-color="#FCD587"/>
</linearGradient>
<linearGradient id="paint12_linear_8_39815" x1="75.0533" y1="26.8593" x2="75.0533" y2="36.7102" gradientUnits="userSpaceOnUse">
<stop stop-color="#FEEFD0"/>
<stop offset="1" stop-color="#FCD587"/>
</linearGradient>
<linearGradient id="paint13_linear_8_39815" x1="35.9862" y1="8" x2="35.9862" y2="24.7245" gradientUnits="userSpaceOnUse">
<stop stop-color="#FEEFD0"/>
<stop offset="1" stop-color="#FCD587"/>
</linearGradient>
<linearGradient id="paint14_linear_8_39815" x1="36.9741" y1="12.9719" x2="36.9741" y2="18.0304" gradientUnits="userSpaceOnUse">
<stop stop-color="#FEEFD0"/>
<stop offset="1" stop-color="#FCD587"/>
</linearGradient>
<linearGradient id="paint15_linear_8_39815" x1="14.9435" y1="28.2275" x2="14.9435" y2="50.404" gradientUnits="userSpaceOnUse">
<stop stop-color="#FEEFD0"/>
<stop offset="1" stop-color="#FCD587"/>
</linearGradient>
<linearGradient id="paint16_linear_8_39815" x1="16.3526" y1="33.7386" x2="16.3526" y2="45.057" gradientUnits="userSpaceOnUse">
<stop stop-color="#FEEFD0"/>
<stop offset="1" stop-color="#FCD587"/>
</linearGradient>
<linearGradient id="paint17_linear_8_39815" x1="27.6807" y1="61.5009" x2="27.6807" y2="79.3612" gradientUnits="userSpaceOnUse">
<stop stop-color="#FEEFD0"/>
<stop offset="1" stop-color="#FCD587"/>
</linearGradient>
<linearGradient id="paint18_linear_8_39815" x1="27.1031" y1="63.9793" x2="27.1031" y2="73.0976" gradientUnits="userSpaceOnUse">
<stop stop-color="#FEEFD0"/>
<stop offset="1" stop-color="#FCD587"/>
</linearGradient>
<linearGradient id="paint19_linear_8_39815" x1="58.9715" y1="65.2778" x2="58.9715" y2="82" gradientUnits="userSpaceOnUse">
<stop stop-color="#FEEFD0"/>
<stop offset="1" stop-color="#FCD587"/>
</linearGradient>
<linearGradient id="paint20_linear_8_39815" x1="58.0119" y1="71.9726" x2="58.0119" y2="77.0141" gradientUnits="userSpaceOnUse">
<stop stop-color="#FEEFD0"/>
<stop offset="1" stop-color="#FCD587"/>
</linearGradient>
<linearGradient id="paint21_linear_8_39815" x1="80.0566" y1="39.6017" x2="80.0566" y2="61.7786" gradientUnits="userSpaceOnUse">
<stop stop-color="#FEEFD0"/>
<stop offset="1" stop-color="#FCD587"/>
</linearGradient>
<linearGradient id="paint22_linear_8_39815" x1="78.6331" y1="44.9367" x2="78.6331" y2="56.2788" gradientUnits="userSpaceOnUse">
<stop stop-color="#FEEFD0"/>
<stop offset="1" stop-color="#FCD587"/>
</linearGradient>
<linearGradient id="paint23_linear_8_39815" x1="67.305" y1="10.6694" x2="67.305" y2="28.516" gradientUnits="userSpaceOnUse">
<stop stop-color="#FEEFD0"/>
<stop offset="1" stop-color="#FCD587"/>
</linearGradient>
<linearGradient id="paint24_linear_8_39815" x1="67.8829" y1="16.9223" x2="67.8829" y2="26.044" gradientUnits="userSpaceOnUse">
<stop stop-color="#FEEFD0"/>
<stop offset="1" stop-color="#FCD587"/>
</linearGradient>
</defs>
</svg>
