<svg width="89" height="49" viewBox="0 0 89 49" fill="none" xmlns="http://www.w3.org/2000/svg">
<path d="M65.0128 4.15671e-06L88.7864 24.0261L65.2292 48.377L14.8681 24.2787L65.0128 4.15671e-06ZM80.1644 24.0622L63.8583 6.16888L26.5204 24.2426L64.0027 42.2081L80.1644 24.0622Z" fill="#7A6D2C"/>
<path d="M20.6044 24.279L84.3855 24.0626L64.5441 45.3109L20.6044 24.279Z" fill="#EDDF9D"/>
<path d="M20.6041 24.2787L84.3853 24.0622L65.5179 4.04044L64.3635 3.10248L20.6041 24.2787Z" fill="url(#paint0_linear_28_174)"/>
<path opacity="0.44" d="M20.6041 24.2787L64.1109 3.21069L60.2508 24.2065L64.2913 45.1663L20.6041 24.2787Z" fill="#7A6D2C"/>
<path d="M63.4255 14.0695C62.3071 16.5226 61.4774 22.439 61.4774 22.7997C61.4774 23.1244 61.6939 23.7016 64.3995 23.6295C67.1412 23.5573 86.0808 24.0624 85.0707 24.0624C84.0605 24.0624 65.8786 25.325 63.9305 25.4332C61.9825 25.5775 61.5496 25.0364 61.4774 25.6857C61.3692 26.3351 61.4774 28.9325 61.4774 28.9325C61.4774 28.9325 60.2148 25.794 57.1484 25.4332C54.082 25.0364 20.7123 24.2788 20.7123 24.2788C20.7123 24.2788 28.3242 23.0883 30.8134 23.2326C33.2665 23.3769 52.17 23.6655 54.5509 23.1605C56.9319 22.6554 58.4832 22.2947 58.6996 21.0681C58.9161 19.8415 64.4717 3.06653 64.4717 3.06653C64.4717 3.06653 63.7501 9.48794 63.7502 10.2816C63.7141 11.0752 63.4255 14.0695 63.4255 14.0695Z" fill="#FFEDB4"/>
<path opacity="0.25" d="M68.5489 6.67439C71.5071 8.406 76.3411 18.0381 79.1189 20.0944C81.8967 22.1507 81.3917 22.8722 78.3974 22.295C75.4032 21.7178 76.7019 21.321 73.3108 21.5013C69.9197 21.7178 67.647 23.4494 67.647 20.0944C67.6109 16.7394 66.6008 5.51998 68.5489 6.67439Z" fill="#FFEDB4"/>
<path opacity="0.25" d="M31.8245 21.5378C35.1074 19.734 41.9256 18.0024 44.7755 16.0183C47.6616 14.0702 60.9012 5.95326 60.9012 5.95326C63.1018 5.37606 62.3081 9.20004 60.9012 11.0038C59.4943 12.8076 58.9531 16.4151 57.7627 18.76C56.5361 21.0688 60.3601 20.8884 47.5894 21.5378C34.7827 22.1511 28.5056 23.3416 31.8245 21.5378Z" fill="#FFEDB4"/>
<path d="M35.8092 6.91504L52.7864 24.0725L35.9638 41.4619L3.73637e-05 24.2529L35.8092 6.91504ZM46.6293 24.0983L34.9848 11.3203L8.32116 24.2271L35.0879 37.0566L46.6293 24.0983Z" fill="#7A6D2C"/>
<path d="M4.09633 24.2532L49.6436 24.0986L35.4745 39.2724L4.09633 24.2532Z" fill="#EDDF9D"/>
<path d="M4.09609 24.2529L49.6433 24.0983L36.1698 9.80043L35.3454 9.13062L4.09609 24.2529Z" fill="url(#paint1_linear_28_174)"/>
<path opacity="0.44" d="M4.09616 24.2529L35.1651 9.20789L32.4086 24.2014L35.294 39.1691L4.09616 24.2529Z" fill="#7A6D2C"/>
<path d="M34.6759 16.9623C33.8772 18.7142 33.2847 22.9391 33.2847 23.1967C33.2847 23.4286 33.4393 23.8408 35.3714 23.7893C37.3293 23.7377 50.8544 24.0984 50.1331 24.0984C49.4117 24.0984 36.4277 25.0001 35.0365 25.0774C33.6454 25.1804 33.3362 24.794 33.2847 25.2577C33.2074 25.7214 33.2847 27.5763 33.2847 27.5763C33.2847 27.5763 32.383 25.335 30.1933 25.0774C28.0035 24.794 4.17364 24.253 4.17364 24.253C4.17364 24.253 9.60943 23.4028 11.387 23.5059C13.1388 23.6089 26.6381 23.815 28.3384 23.4544C30.0387 23.0937 31.1465 22.8361 31.301 21.9602C31.4556 21.0843 35.423 9.10492 35.423 9.10492C35.423 9.10492 34.9077 13.6906 34.9077 14.2573C34.882 14.8241 34.6759 16.9623 34.6759 16.9623Z" fill="#FFEDB4"/>
<path opacity="0.25" d="M38.3343 11.6814C40.4467 12.9179 43.8988 19.7964 45.8825 21.2648C47.8662 22.7333 47.5055 23.2485 45.3673 22.8363C43.229 22.4241 44.1565 22.1407 41.7348 22.2696C39.3132 22.4241 37.6902 23.6607 37.6902 21.2648C37.6644 18.869 36.9431 10.857 38.3343 11.6814Z" fill="#FFEDB4"/>
<path opacity="0.25" d="M12.1087 22.2956C14.453 21.0075 19.322 19.7709 21.3572 18.354C23.4182 16.9628 32.8728 11.1664 32.8728 11.1664C34.4443 10.7542 33.8776 13.485 32.8728 14.7731C31.8681 16.0612 31.4817 18.6374 30.6316 20.3119C29.7556 21.9607 32.4864 21.8319 23.3667 22.2956C14.2212 22.7335 9.73857 23.5837 12.1087 22.2956Z" fill="#FFEDB4"/>
<defs>
<linearGradient id="paint0_linear_28_174" x1="53.6724" y1="8.68929" x2="52.1649" y2="28.7388" gradientUnits="userSpaceOnUse">
<stop stop-color="#D0BB70"/>
<stop offset="1" stop-color="#FFF7DD"/>
</linearGradient>
<linearGradient id="paint1_linear_28_174" x1="27.7107" y1="13.1203" x2="26.6342" y2="27.4379" gradientUnits="userSpaceOnUse">
<stop stop-color="#D0BB70"/>
<stop offset="1" stop-color="#FFF7DD"/>
</linearGradient>
</defs>
</svg>
