<svg width="89" height="49" viewBox="0 0 89 49" fill="none" xmlns="http://www.w3.org/2000/svg">
<path d="M23.7736 4.15671e-06L-4.20087e-06 24.0261L23.5572 48.377L73.9183 24.2787L23.7736 4.15671e-06ZM8.62199 24.0622L24.928 6.16888L62.266 24.2426L24.7837 42.2081L8.62199 24.0622Z" fill="#7A6D2C"/>
<path d="M68.1819 24.279L4.40076 24.0626L24.2422 45.3109L68.1819 24.279Z" fill="#EDDF9D"/>
<path d="M68.1823 24.2787L4.40112 24.0622L23.2685 4.04044L24.4229 3.10248L68.1823 24.2787Z" fill="url(#paint0_linear_28_160)"/>
<path opacity="0.44" d="M68.1822 24.2787L24.6754 3.21069L28.5354 24.2065L24.495 45.1663L68.1822 24.2787Z" fill="#7A6D2C"/>
<path d="M25.3608 14.0695C26.4791 16.5226 27.3088 22.439 27.3088 22.7997C27.3088 23.1244 27.0924 23.7016 24.3867 23.6295C21.645 23.5573 2.70549 24.0624 3.7156 24.0624C4.72571 24.0624 22.9077 25.325 24.8557 25.4332C26.8038 25.5775 27.2367 25.0364 27.3088 25.6857C27.4171 26.3351 27.3088 28.9325 27.3088 28.9325C27.3088 28.9325 28.5715 25.794 31.6379 25.4332C34.7043 25.0364 68.0739 24.2788 68.0739 24.2788C68.0739 24.2788 60.462 23.0883 57.9729 23.2326C55.5197 23.3769 36.6163 23.6655 34.2353 23.1605C31.8543 22.6554 30.3031 22.2947 30.0866 21.0681C29.8702 19.8415 24.3146 3.06653 24.3146 3.06653C24.3146 3.06653 25.0361 9.48794 25.0361 10.2816C25.0722 11.0752 25.3608 14.0695 25.3608 14.0695Z" fill="#FFEDB4"/>
<path opacity="0.25" d="M20.2375 6.67439C17.2793 8.406 12.4452 18.0381 9.66744 20.0944C6.88964 22.1507 7.39469 22.8722 10.3889 22.295C13.3832 21.7178 12.0845 21.321 15.4756 21.5013C18.8666 21.7178 21.1394 23.4494 21.1394 20.0944C21.1755 16.7394 22.1856 5.51998 20.2375 6.67439Z" fill="#FFEDB4"/>
<path opacity="0.25" d="M56.962 21.5378C53.6791 19.734 46.8609 18.0024 44.011 16.0183C41.1249 14.0702 27.8853 5.95326 27.8853 5.95326C25.6847 5.37606 26.4784 9.20004 27.8853 11.0038C29.2922 12.8076 29.8334 16.4151 31.0238 18.76C32.2504 21.0688 28.4264 20.8884 41.1971 21.5378C54.0038 22.1511 60.2809 23.3416 56.962 21.5378Z" fill="#FFEDB4"/>
<path d="M52.9772 6.91504L36 24.0725L52.8226 41.4619L88.7863 24.2529L52.9772 6.91504ZM42.1571 24.0983L53.8015 11.3203L80.4652 24.2271L53.6985 37.0566L42.1571 24.0983Z" fill="#7A6D2C"/>
<path d="M84.6899 24.2532L39.1427 24.0986L53.3118 39.2724L84.6899 24.2532Z" fill="#EDDF9D"/>
<path d="M84.6903 24.2529L39.1431 24.0983L52.6166 9.80043L53.441 9.13062L84.6903 24.2529Z" fill="url(#paint1_linear_28_160)"/>
<path opacity="0.44" d="M84.6901 24.2529L53.6211 9.20789L56.3777 24.2014L53.4923 39.1691L84.6901 24.2529Z" fill="#7A6D2C"/>
<path d="M54.1106 16.9623C54.9093 18.7142 55.5018 22.9391 55.5018 23.1967C55.5018 23.4286 55.3472 23.8408 53.4151 23.7893C51.4572 23.7377 37.9321 24.0984 38.6534 24.0984C39.3748 24.0984 52.3588 25.0001 53.75 25.0774C55.1411 25.1804 55.4503 24.794 55.5018 25.2577C55.5791 25.7214 55.5018 27.5763 55.5018 27.5763C55.5018 27.5763 56.4035 25.335 58.5932 25.0774C60.783 24.794 84.6129 24.253 84.6129 24.253C84.6129 24.253 79.1771 23.4028 77.3995 23.5059C75.6477 23.6089 62.1484 23.815 60.4481 23.4544C58.7478 23.0937 57.64 22.8361 57.4855 21.9602C57.3309 21.0843 53.3635 9.10492 53.3635 9.10492C53.3635 9.10492 53.8788 13.6906 53.8788 14.2573C53.9045 14.8241 54.1106 16.9623 54.1106 16.9623Z" fill="#FFEDB4"/>
<path opacity="0.25" d="M50.452 11.6814C48.3395 12.9179 44.8874 19.7964 42.9037 21.2648C40.9201 22.7333 41.2807 23.2485 43.419 22.8363C45.5572 22.4241 44.6298 22.1407 47.0514 22.2696C49.473 22.4241 51.096 23.6607 51.096 21.2648C51.1218 18.869 51.8431 10.857 50.452 11.6814Z" fill="#FFEDB4"/>
<path opacity="0.25" d="M76.6776 22.2956C74.3332 21.0075 69.4642 19.7709 67.429 18.354C65.3681 16.9628 55.9134 11.1664 55.9134 11.1664C54.3419 10.7542 54.9087 13.485 55.9134 14.7731C56.9181 16.0612 57.3046 18.6374 58.1547 20.3119C59.0306 21.9607 56.2998 21.8319 65.4196 22.2956C74.5651 22.7335 79.0477 23.5837 76.6776 22.2956Z" fill="#FFEDB4"/>
<defs>
<linearGradient id="paint0_linear_28_160" x1="35.114" y1="8.68929" x2="36.6215" y2="28.7388" gradientUnits="userSpaceOnUse">
<stop stop-color="#D0BB70"/>
<stop offset="1" stop-color="#FFF7DD"/>
</linearGradient>
<linearGradient id="paint1_linear_28_160" x1="61.0757" y1="13.1203" x2="62.1522" y2="27.4379" gradientUnits="userSpaceOnUse">
<stop stop-color="#D0BB70"/>
<stop offset="1" stop-color="#FFF7DD"/>
</linearGradient>
</defs>
</svg>
