<svg width="53" height="35" viewBox="0 0 53 35" fill="none" xmlns="http://www.w3.org/2000/svg">
<path d="M16.9772 2.96838e-06L3.04045e-06 17.1575L16.8226 34.5469L52.7863 17.3378L16.9772 2.96838e-06ZM6.15712 17.1833L17.8015 4.40531L44.4652 17.3121L17.6985 30.1415L6.15712 17.1833Z" fill="#7A6D2C"/>
<path d="M48.6899 17.3381L3.14271 17.1835L17.3118 32.3574L48.6899 17.3381Z" fill="#EDDF9D"/>
<path d="M48.6903 17.3379L3.14307 17.1833L16.6166 2.88539L17.441 2.21558L48.6903 17.3379Z" fill="url(#paint0_linear_28_126)"/>
<path opacity="0.44" d="M48.6901 17.3379L17.6211 2.29285L20.3777 17.2863L17.4923 32.2541L48.6901 17.3379Z" fill="#7A6D2C"/>
<path d="M18.1105 10.0473C18.9091 11.7991 19.5017 16.0241 19.5017 16.2817C19.5017 16.5136 19.3471 16.9258 17.4149 16.8742C15.457 16.8227 1.93198 17.1834 2.65332 17.1834C3.37465 17.1834 16.3587 18.085 17.7499 18.1623C19.141 18.2654 19.4501 17.8789 19.5017 18.3427C19.579 18.8064 19.5017 20.6612 19.5017 20.6612C19.5017 20.6612 20.4033 18.4199 22.5931 18.1623C24.7829 17.8789 48.6127 17.3379 48.6127 17.3379C48.6127 17.3379 43.177 16.4878 41.3994 16.5908C39.6476 16.6939 26.1483 16.9 24.448 16.5393C22.7477 16.1787 21.6399 15.921 21.4853 15.0451C21.3308 14.1692 17.3634 2.18988 17.3634 2.18988C17.3634 2.18988 17.8787 6.77552 17.8787 7.34228C17.9044 7.90905 18.1105 10.0473 18.1105 10.0473Z" fill="#FFEDB4"/>
<path opacity="0.25" d="M14.452 4.76633C12.3395 6.00291 8.88741 12.8814 6.90374 14.3498C4.92006 15.8182 5.28073 16.3335 7.41898 15.9213C9.55722 15.5091 8.62979 15.2257 11.0514 15.3545C13.473 15.5091 15.0961 16.7457 15.0961 14.3498C15.1218 11.9539 15.8432 3.94195 14.452 4.76633Z" fill="#FFEDB4"/>
<path opacity="0.25" d="M40.6776 15.3805C38.3332 14.0924 33.4642 12.8559 31.429 11.439C29.3681 10.0478 19.9134 4.25135 19.9134 4.25135C18.3419 3.83916 18.9087 6.56993 19.9134 7.85803C20.9181 9.14613 21.3046 11.7223 22.1547 13.3969C23.0306 15.0456 20.2998 14.9168 29.4196 15.3805C38.5651 15.8185 43.0477 16.6686 40.6776 15.3805Z" fill="#FFEDB4"/>
<defs>
<linearGradient id="paint0_linear_28_126" x1="25.0757" y1="6.20521" x2="26.1522" y2="20.5229" gradientUnits="userSpaceOnUse">
<stop stop-color="#D0BB70"/>
<stop offset="1" stop-color="#FFF7DD"/>
</linearGradient>
</defs>
</svg>
