<svg width="53" height="35" viewBox="0 0 53 35" fill="none" xmlns="http://www.w3.org/2000/svg">
<path d="M35.8092 2.96838e-06L52.7864 17.1575L35.9638 34.5469L3.73637e-05 17.3378L35.8092 2.96838e-06ZM46.6293 17.1833L34.9848 4.40531L8.32116 17.3121L35.0879 30.1415L46.6293 17.1833Z" fill="#7A6D2C"/>
<path d="M4.09658 17.3381L49.6438 17.1835L35.4747 32.3574L4.09658 17.3381Z" fill="#EDDF9D"/>
<path d="M4.09634 17.3379L49.6436 17.1833L36.17 2.88539L35.3456 2.21558L4.09634 17.3379Z" fill="url(#paint0_linear_28_163)"/>
<path opacity="0.44" d="M4.09641 17.3379L35.1654 2.29285L32.4088 17.2863L35.2942 32.2541L4.09641 17.3379Z" fill="#7A6D2C"/>
<path d="M34.6759 10.0473C33.8772 11.7991 33.2847 16.0241 33.2847 16.2817C33.2847 16.5136 33.4393 16.9258 35.3714 16.8742C37.3293 16.8227 50.8544 17.1834 50.1331 17.1834C49.4117 17.1834 36.4277 18.085 35.0365 18.1623C33.6454 18.2654 33.3362 17.8789 33.2847 18.3427C33.2074 18.8064 33.2847 20.6612 33.2847 20.6612C33.2847 20.6612 32.383 18.4199 30.1933 18.1623C28.0035 17.8789 4.17364 17.3379 4.17364 17.3379C4.17364 17.3379 9.60943 16.4878 11.387 16.5908C13.1388 16.6939 26.6381 16.9 28.3384 16.5393C30.0387 16.1787 31.1465 15.921 31.301 15.0451C31.4556 14.1692 35.423 2.18988 35.423 2.18988C35.423 2.18988 34.9077 6.77552 34.9077 7.34228C34.882 7.90905 34.6759 10.0473 34.6759 10.0473Z" fill="#FFEDB4"/>
<path opacity="0.25" d="M38.3343 4.76633C40.4467 6.00291 43.8988 12.8814 45.8825 14.3498C47.8662 15.8182 47.5055 16.3335 45.3673 15.9213C43.229 15.5091 44.1565 15.2257 41.7348 15.3545C39.3132 15.5091 37.6902 16.7457 37.6902 14.3498C37.6644 11.9539 36.9431 3.94195 38.3343 4.76633Z" fill="#FFEDB4"/>
<path opacity="0.25" d="M12.1087 15.3805C14.453 14.0924 19.322 12.8559 21.3572 11.439C23.4182 10.0478 32.8728 4.25135 32.8728 4.25135C34.4443 3.83916 33.8776 6.56993 32.8728 7.85803C31.8681 9.14613 31.4817 11.7223 30.6316 13.3969C29.7556 15.0456 32.4864 14.9168 23.3667 15.3805C14.2212 15.8185 9.73857 16.6686 12.1087 15.3805Z" fill="#FFEDB4"/>
<defs>
<linearGradient id="paint0_linear_28_163" x1="27.7109" y1="6.20521" x2="26.6344" y2="20.5229" gradientUnits="userSpaceOnUse">
<stop stop-color="#D0BB70"/>
<stop offset="1" stop-color="#FFF7DD"/>
</linearGradient>
</defs>
</svg>
